<?xml version="1.0" standalone="no"?>
<!DOCTYPE svg PUBLIC "-//W3C//DTD SVG 20010904//EN"
 "http://www.w3.org/TR/2001/REC-SVG-20010904/DTD/svg10.dtd">
<svg version="1.0" xmlns="http://www.w3.org/2000/svg"
 width="500.000000pt" height="500.000000pt" viewBox="0 0 500.000000 500.000000"
 preserveAspectRatio="xMidYMid meet">
<metadata>
Created by potrace 1.11, written by Peter Selinger 2001-2013
</metadata>
<g transform="translate(0.000000,500.000000) scale(0.100000,-0.100000)"
fill="#000000" stroke="none">
<path d="M0 2500 l0 -2500 2500 0 2500 0 0 2500 0 2500 -2500 0 -2500 0 0
-2500z m1650 713 c1 -71 3 -85 13 -72 31 40 104 51 158 23 47 -24 59 -66 59
-209 l0 -125 -50 0 -50 0 0 118 c0 133 -11 162 -59 162 -53 0 -66 -28 -69
-161 l-4 -119 -49 0 -49 0 0 235 0 235 50 0 50 0 0 -87z m1990 -50 l1 -138 67
73 67 72 60 0 59 0 -72 -73 c-39 -40 -72 -76 -72 -81 0 -5 16 -29 35 -52 19
-24 51 -64 71 -89 l36 -45 -63 0 -64 1 -48 65 c-45 61 -50 64 -63 47 -7 -10
-14 -39 -14 -65 l0 -48 -50 0 -50 0 0 235 0 235 50 0 50 0 0 -137z m-2122 70
l-3 -38 -72 -3 -73 -3 0 -179 0 -180 -50 0 -50 0 0 180 0 180 -75 0 -75 0 0
40 0 40 201 0 200 0 -3 -37z m1205 26 c52 -14 111 -69 125 -117 34 -112 -3
-230 -86 -280 -43 -25 -57 -27 -174 -31 l-128 -3 0 221 0 221 113 0 c61 0 129
-5 150 -11z m-526 -105 c47 -35 66 -70 71 -129 l4 -55 -121 0 c-122 0 -122 0
-116 -22 17 -58 80 -75 120 -32 20 21 31 25 70 22 l47 -3 -24 -34 c-34 -50
-67 -71 -124 -77 -66 -8 -135 20 -163 67 -58 96 -22 232 74 275 41 20 129 13
162 -12z m948 12 c53 -22 63 -54 67 -204 l3 -132 -47 0 c-36 0 -48 4 -48 15 0
8 -4 15 -10 15 -5 0 -10 -4 -10 -10 0 -15 -75 -33 -112 -26 -42 8 -76 41 -83
81 -12 65 50 120 146 131 52 6 59 9 59 28 0 49 -56 62 -88 21 -15 -19 -29 -25
-61 -25 -33 0 -41 3 -41 19 0 26 38 71 74 87 41 17 108 17 151 0z m355 -26 c0
-37 -2 -39 -34 -46 -60 -11 -71 -32 -74 -155 l-4 -109 -49 0 -49 0 0 170 0
170 50 0 c46 0 50 -2 50 -24 l0 -24 29 29 c17 17 40 29 55 29 24 0 26 -4 26
-40z m-780 -591 l0 -90 24 28 c22 25 31 28 85 28 53 0 64 -4 88 -28 28 -27 28
-29 31 -172 l3 -145 -50 0 -51 0 0 123 c0 109 -2 126 -19 141 -11 10 -31 16
-48 14 -46 -5 -63 -53 -63 -175 l0 -103 -50 0 -50 0 0 235 0 235 50 0 50 0 0
-91z m394 75 c9 -8 16 -24 16 -34 0 -20 -35 -50 -57 -50 -17 0 -53 37 -53 54
0 22 29 46 55 46 13 0 31 -7 39 -16z m-1770 -24 c43 -20 63 -45 77 -92 8 -28
8 -28 -41 -28 -44 0 -51 3 -64 29 -26 49 -96 49 -111 0 -10 -32 20 -57 96 -79
111 -33 152 -92 123 -177 -16 -44 -44 -67 -102 -84 -102 -28 -212 22 -237 109
-6 21 -3 22 42 22 43 0 52 -4 71 -30 18 -23 30 -30 58 -30 48 0 74 16 74 45 0
28 -42 60 -95 71 -84 18 -135 68 -135 134 0 102 136 163 244 110z m844 -114
c26 -26 27 -30 30 -171 l3 -145 -50 0 -51 0 0 123 c0 109 -2 126 -19 141 -11
10 -31 16 -48 14 -46 -5 -63 -53 -63 -175 l0 -103 -50 0 -50 0 0 170 0 170 50
0 c48 0 50 -1 50 -27 l0 -27 16 22 c22 32 51 42 107 38 36 -2 56 -10 75 -30z
m296 20 c34 -14 76 -59 76 -82 0 -10 -14 -14 -49 -14 -40 0 -51 4 -56 19 -7
25 -39 32 -62 16 -28 -22 -5 -47 66 -71 74 -26 99 -46 107 -89 17 -95 -110
-157 -221 -106 -44 20 -59 35 -69 69 -7 21 -5 22 41 22 37 0 51 -4 61 -20 15
-25 79 -28 88 -5 10 24 -13 42 -81 65 -68 23 -90 40 -100 83 -22 87 97 156
199 113z m1014 -20 c26 -26 27 -30 30 -171 l3 -145 -50 0 -51 0 0 123 c0 109
-2 126 -19 141 -11 10 -31 16 -48 14 -46 -5 -63 -53 -63 -175 l0 -103 -50 0
-50 0 0 170 0 170 50 0 c48 0 50 -1 50 -27 l0 -27 16 22 c22 32 51 42 107 38
36 -2 56 -10 75 -30z m339 13 c58 -28 90 -92 84 -166 -1 -10 -31 -13 -116 -13
l-115 0 0 -25 c0 -32 33 -65 65 -65 14 0 37 11 51 26 21 20 34 24 70 22 l43
-3 -16 -32 c-24 -51 -77 -78 -148 -78 -95 0 -149 45 -166 139 -8 48 10 127 37
158 26 29 92 58 133 58 19 0 54 -9 78 -21z m-2257 -100 c0 -132 14 -168 64
-169 11 0 30 10 43 22 22 20 23 29 23 140 l0 118 50 0 50 0 0 -170 0 -170 -50
0 c-48 0 -50 1 -51 28 0 26 -1 26 -11 5 -21 -43 -101 -55 -158 -24 -48 25 -59
63 -59 209 l-1 122 50 0 50 0 0 -111z m1550 -59 l0 -170 -50 0 -50 0 0 170 0
170 50 0 50 0 0 -170z m-830 -600 c0 -33 -3 -40 -19 -40 -11 0 -22 4 -25 9 -4
5 3 7 15 4 17 -5 20 -2 17 13 -2 10 -11 18 -21 18 -9 -1 -14 3 -11 8 3 5 12 7
20 4 8 -3 14 1 14 9 0 8 2 15 5 15 3 0 5 -18 5 -40z m600 15 c10 0 16 -11 17
-30 2 -25 1 -26 -5 -7 -4 13 -11 23 -17 23 -5 0 -13 -10 -17 -23 -4 -16 -6 -9
-6 22 0 25 2 38 6 30 4 -8 14 -15 22 -15z m-990 11 c0 -2 -7 -7 -16 -10 -8 -3
-12 -2 -9 4 6 10 25 14 25 6z m58 -39 c-4 -26 -52 -32 -70 -9 -12 15 -11 16 4
4 20 -16 42 -7 34 14 -3 8 -1 14 5 14 6 0 7 6 3 13 -5 8 -2 7 10 -2 9 -8 16
-23 14 -34z m55 -20 c8 -6 7 -7 -3 -4 -9 2 -16 17 -16 38 -2 31 -1 31 3 4 3
-16 10 -34 16 -38z m86 9 c-1 -20 -2 -20 -6 -1 -3 11 -10 27 -17 35 -10 13 -9
13 7 1 9 -7 16 -23 16 -35z m75 13 c-3 -5 -13 -9 -22 -10 -14 0 -13 -2 3 -10
19 -8 19 -9 1 -6 -28 3 -33 27 -6 27 20 0 21 2 9 18 -13 15 -12 16 3 3 10 -7
15 -17 12 -22z m194 -2 c3 -21 -1 -27 -17 -27 -24 0 -36 16 -20 26 8 4 9 3 5
-4 -4 -7 -1 -12 8 -12 18 0 22 35 6 43 -6 3 -5 4 2 3 7 -1 14 -15 16 -29z
m124 21 c-8 -8 -8 -17 -1 -32 9 -19 9 -19 -4 -4 -8 10 -18 14 -23 10 -5 -4 0
3 10 16 11 12 22 22 25 22 3 0 0 -5 -7 -12z m86 -2 c-7 -8 -15 -12 -17 -11 -5
6 10 25 20 25 5 0 4 -6 -3 -14z m178 -19 c1 -26 1 -26 -3 -2 -5 31 -25 28 -34
-6 -6 -22 -7 -21 -8 7 -1 26 3 31 22 30 17 -1 22 -7 23 -29z m52 19 c-7 -8
-15 -12 -17 -11 -5 6 10 25 20 25 5 0 4 -6 -3 -14z m220 -11 c-3 -3 -9 2 -12
12 -6 14 -5 15 5 6 7 -7 10 -15 7 -18z m78 13 c4 -7 3 -8 -4 -4 -7 4 -18 4
-24 0 -9 -6 -5 -10 12 -15 l25 -7 -27 -1 c-30 -1 -35 8 -16 27 15 15 25 15 34
0z m-694 -23 c-2 -14 -6 -25 -8 -25 -2 0 -4 11 -4 25 0 14 4 25 9 25 4 0 6
-11 3 -25z m268 2 c0 -17 -6 -23 -25 -25 -14 -1 -25 3 -25 8 0 5 7 7 16 3 10
-4 17 1 21 16 7 28 13 27 13 -2z m267 -14 c-3 -10 -5 -4 -5 12 0 17 2 24 5 18
2 -7 2 -21 0 -30z m45 12 c-2 -14 -6 -25 -8 -25 -2 0 -4 11 -4 25 0 14 4 25 9
25 4 0 6 -11 3 -25z m-394 -7 c-3 -7 -12 -14 -22 -14 -13 -2 -13 -1 -1 3 8 2
13 9 10 14 -4 5 -1 9 5 9 7 0 10 -6 8 -12z m230 0 c-3 -7 -12 -14 -22 -14 -13
-2 -13 -1 -1 3 8 2 13 9 10 14 -4 5 -1 9 5 9 7 0 10 -6 8 -12z m275 -15 c-7
-2 -19 -2 -25 0 -7 3 -2 5 12 5 14 0 19 -2 13 -5z"/>
<path d="M2560 3050 l0 -140 59 0 c49 0 65 4 90 26 71 60 62 207 -15 242 -14
7 -49 12 -79 12 l-55 0 0 -140z"/>
<path d="M2060 3090 c-38 -38 -27 -50 45 -50 36 0 65 3 65 6 0 11 -23 49 -34
56 -20 14 -56 8 -76 -12z"/>
<path d="M3033 2968 c-34 -16 -32 -65 2 -74 37 -9 75 19 75 56 0 26 -4 30 -27
29 -16 0 -38 -5 -50 -11z"/>
<path d="M3710 2428 c-35 -38 -26 -48 45 -48 72 0 83 12 45 50 -26 26 -64 25
-90 -2z"/>
<path d="M1952 1730 c0 -14 2 -19 5 -12 2 6 2 18 0 25 -3 6 -5 1 -5 -13z"/>
</g>
</svg>
